<?xml version="1.0" standalone="no"?>
<!DOCTYPE svg PUBLIC "-//W3C//DTD SVG 20010904//EN"
 "http://www.w3.org/TR/2001/REC-SVG-20010904/DTD/svg10.dtd">
<svg version="1.0" xmlns="http://www.w3.org/2000/svg"
 width="16.000000pt" height="16.000000pt" viewBox="0 0 16.000000 16.000000"
 preserveAspectRatio="xMidYMid meet">
<metadata>
Created by potrace 1.11, written by Peter Selinger 2001-2013
</metadata>
<g transform="translate(0.000000,16.000000) scale(0.003125,-0.003125)"
fill="#000000" stroke="none">
<path d="M190 5111 c-69 -21 -130 -73 -166 -141 -18 -34 -19 -113 -19 -2410 0
-2329 0 -2376 19 -2414 25 -50 72 -97 122 -122 38 -19 85 -19 2414 -19 l2375
0 40 22 c47 25 95 74 121 123 18 34 19 113 19 2410 0 2297 -1 2376 -19 2410
-26 49 -74 98 -121 123 l-40 22 -2360 2 c-1298 1 -2371 -2 -2385 -6z m2610
-997 c450 -77 840 -404 979 -819 145 -433 28 -888 -311 -1211 -46 -44 -118
-103 -159 -131 l-74 -50 1 138 1 138 70 70 c184 181 279 392 290 641 12 262
-78 498 -264 691 -127 132 -243 207 -413 267 -172 60 -362 76 -541 46 -237
-41 -426 -141 -592 -313 -186 -193 -276 -429 -264 -691 11 -249 109 -465 290
-642 l69 -68 2 -135 c1 -106 -2 -134 -12 -130 -36 14 -146 98 -221 169 -335
320 -454 781 -311 1206 60 182 146 318 294 466 302 303 725 433 1166 358z m20
-473 c133 -45 220 -99 320 -200 96 -97 149 -180 187 -296 23 -69 27 -97 27
-210 1 -109 -3 -142 -22 -205 -34 -110 -84 -197 -161 -285 l-32 -36 -47 52
c-26 29 -64 65 -85 80 l-37 27 36 43 c163 195 149 476 -32 669 -109 116 -248
174 -414 174 -166 0 -305 -58 -414 -174 -182 -193 -195 -473 -32 -669 l36 -43
-58 -44 c-31 -24 -68 -59 -82 -78 -14 -20 -28 -34 -32 -33 -16 5 -111 134
-138 186 -58 115 -75 193 -74 336 0 111 4 141 26 207 72 216 245 398 456 481
124 48 182 57 337 53 126 -2 149 -6 235 -35z m-122 -441 c73 -32 147 -114 168
-187 41 -140 -22 -279 -159 -351 -46 -24 -63 -27 -147 -27 -84 0 -101 3 -147
28 -183 96 -228 310 -97 456 73 82 149 113 259 107 44 -2 89 -11 123 -26z
m-47 -734 c161 -34 279 -136 328 -284 25 -73 26 -147 6 -268 -71 -410 -235
-764 -380 -820 -42 -16 -48 -16 -90 0 -121 47 -251 287 -340 631 -32 125 -55
263 -55 336 0 192 143 360 344 404 80 17 107 18 187 1z"/>
</g>
</svg>
